<svg width="100" height="30" fill="none" xmlns="http://www.w3.org/2000/svg"><path d="M1.979 20l.934-2.695h3.978L7.82 20h1.63L5.787 9.818H4.012L.348 20h1.63zm1.382-3.987l1.501-4.345h.08l1.501 4.345H3.361zM10.802 20h1.487v-3.053h.964L15.555 20h1.844l-2.993-3.923 2.958-3.713h-1.839l-2.52 3.201h-.716v-3.201h-1.487V20zm7.752 0h1.487v-3.053h.964L23.307 20h1.844l-2.993-3.923 2.958-3.713h-1.839l-2.52 3.201h-.716v-3.201h-1.487V20zm9.974.169c1.263 0 1.974-.641 2.257-1.213h.06V20h1.452v-5.071c0-2.222-1.75-2.665-2.963-2.665-1.383 0-2.655.557-3.152 1.95l1.397.317c.218-.542.775-1.064 1.774-1.064.96 0 1.452.502 1.452 1.367v.035c0 .542-.557.532-1.929.691-1.447.17-2.928.547-2.928 2.282 0 1.502 1.128 2.327 2.58 2.327zm.323-1.193c-.84 0-1.446-.378-1.446-1.114 0-.795.706-1.079 1.566-1.193.482-.065 1.625-.194 1.84-.408v.985c0 .905-.722 1.73-1.96 1.73zm6.092 3.888c1.228 0 2.003-.642 2.446-1.845l3.157-8.64-1.606-.015-1.934 5.926h-.08l-1.934-5.926h-1.59l2.794 7.735-.184.508c-.378 1.014-.91 1.098-1.725.875l-.358 1.218c.179.08.566.164 1.014.164zm8.46-10.5h-1.456V20h1.456v-3.172h3.306V20h1.452v-7.636h-1.452v3.176h-3.306v-3.176zm5.8 1.282h2.5V20h1.452v-6.354h2.49v-1.282h-6.442v1.282z" fill="#000"/><rect x="74" width="26" height="30" rx="4" fill="#F4F4F4"/><path fill-rule="evenodd" clip-rule="evenodd" d="M89.5 12a2.5 2.5 0 11-5 0 2.5 2.5 0 015 0zm1.5 0a4 4 0 11-8 0 4 4 0 018 0zm-6 5.25A3.75 3.75 0 0081.25 21v1h1.5v-1A2.25 2.25 0 0185 18.75h4A2.25 2.25 0 0191.25 21v1h1.5v-1A3.75 3.75 0 0089 17.25h-4z" fill="#000"/></svg>